# xmcd CD database file
#
# Track frame offsets:
#	150
#	21392
#	34805
#	51287
#	69432
#	81815
#	100690
#	119255
#	136382
#	154745
#	173662
#	185867
#
# Disc length: 2699 seconds
#
# Revision: 0
# Processed by: cddbd v1.4PL0 Copyright (c) Steve Scherf et al.
# Submitted via: Feurio! 1.62 - http://www.feurio.com
#
DISCID=a00a890c
DTITLE=Brack, John and Turner, Jeff - Christmas With Us
DYEAR=2002
DGENRE=Country
TTITLE0=Christmas Medley
TTITLE1=Christmas Two Step
TTITLE2=The Perfect Year
TTITLE3=The Christmas Song
TTITLE4=We Need A Little Christmas
TTITLE5=More Than Once A Year
TTITLE6=A Little Star Of Bethlehem
TTITLE7=Gospel Time
TTITLE8=I'll Be Home For Christmas
TTITLE9=The World Is Waiting
TTITLE10=Get Yourself A Christmas Angel
TTITLE11=Anthem For The King
EXTD=
EXTT0=
EXTT1=
EXTT2=
EXTT3=
EXTT4=
EXTT5=
EXTT6=
EXTT7=
EXTT8=
EXTT9=
EXTT10=
EXTT11=
PLAYORDER=
